<svg width="544" height="544" viewBox="0 0 544 544" fill="none" xmlns="http://www.w3.org/2000/svg">
<path d="M16 16V428.903H528V16H16ZM511.484 412.387H32.5161V32.5161H511.484V412.387Z" fill="#3E69FF"/>
<path d="M338.065 49.0323H49.0323V230.71H338.065V49.0323ZM321.548 214.194H65.5484V65.5484H321.548V214.194Z" fill="#3E69FF"/>
<path d="M494.968 49.0323H354.581V65.5484H494.968V49.0323Z" fill="#3E69FF"/>
<path d="M494.968 82.0645H354.581V98.5806H494.968V82.0645Z" fill="#3E69FF"/>
<path d="M494.968 115.097H354.581V131.613H494.968V115.097Z" fill="#3E69FF"/>
<path d="M494.968 148.129H354.581V164.645H494.968V148.129Z" fill="#3E69FF"/>
<path d="M494.968 181.161H354.581V197.677H494.968V181.161Z" fill="#3E69FF"/>
<path d="M494.968 214.194H354.581V230.71H494.968V214.194Z" fill="#3E69FF"/>
<path d="M189.419 247.226H49.0323V395.871H189.419V247.226ZM172.903 379.355H65.5484V263.742H172.903V379.355Z" fill="#3E69FF"/>
<path d="M205.935 395.871H338.065V247.226H205.935V395.871ZM222.452 263.742H321.548V379.355H222.452V263.742Z" fill="#3E69FF"/>
<path d="M494.968 247.226H354.581V395.871H494.968V247.226ZM478.452 379.355H371.097V263.742H478.452V379.355Z" fill="#3E69FF"/>
<path d="M189.419 197.677C221.295 197.677 247.226 171.747 247.226 139.871C247.226 107.995 221.295 82.0645 189.419 82.0645C157.543 82.0645 131.613 107.995 131.613 139.871C131.613 171.747 157.543 197.677 189.419 197.677ZM189.419 98.5806C212.187 98.5806 230.71 117.103 230.71 139.871C230.71 162.638 212.187 181.161 189.419 181.161C166.652 181.161 148.129 162.638 148.129 139.871C148.129 117.103 166.652 98.5806 189.419 98.5806Z" fill="#3E69FF"/>
<path d="M486.71 445.419H96.384L24.1259 486.71L96.384 528H486.71C509.477 528 528 509.477 528 486.71C528 463.942 509.477 445.419 486.71 445.419ZM98.5806 510.229L57.4224 486.71L98.5806 463.191V510.229ZM412.387 511.484H115.097V461.935H412.387V511.484ZM445.419 511.484H428.903V461.935H445.419V511.484ZM486.71 511.484H461.935V461.935H486.71C500.369 461.935 511.484 473.051 511.484 486.71C511.484 500.369 500.369 511.484 486.71 511.484Z" fill="#3E69FF"/>
</svg>
