<svg width="48" height="48" viewBox="0 0 48 48" fill="none" xmlns="http://www.w3.org/2000/svg">
<path d="M22.5 36.5H18C15.8 36.5 14 38.3 14 40.5V41H12C11.18 41 10.5 41.68 10.5 42.5C10.5 43.32 11.18 44 12 44H36C36.82 44 37.5 43.32 37.5 42.5C37.5 41.68 36.82 41 36 41H34V40.5C34 38.3 32.2 36.5 30 36.5H25.5V31.92C25 31.98 24.5 32 24 32C23.5 32 23 31.98 22.5 31.92V36.5Z" fill="white"/>
<path d="M36.96 23.28C38.28 22.78 39.44 21.96 40.36 21.04C42.22 18.98 43.44 16.52 43.44 13.64C43.44 10.76 41.18 8.5 38.3 8.5H37.18C35.88 5.84 33.16 4 30 4H18C14.84 4 12.12 5.84 10.82 8.5H9.7C6.82 8.5 4.56 10.76 4.56 13.64C4.56 16.52 5.78 18.98 7.64 21.04C8.56 21.96 9.72 22.78 11.04 23.28C13.12 28.4 18.12 32 24 32C29.88 32 34.88 28.4 36.96 23.28ZM29.68 16.9L28.44 18.42C28.24 18.64 28.1 19.08 28.12 19.38L28.24 21.34C28.32 22.54 27.46 23.16 26.34 22.72L24.52 22C24.24 21.9 23.76 21.9 23.48 22L21.66 22.72C20.54 23.16 19.68 22.54 19.76 21.34L19.88 19.38C19.9 19.08 19.76 18.64 19.56 18.42L18.32 16.9C17.54 15.98 17.88 14.96 19.04 14.66L20.94 14.18C21.24 14.1 21.6 13.82 21.76 13.56L22.82 11.92C23.48 10.9 24.52 10.9 25.18 11.92L26.24 13.56C26.4 13.82 26.76 14.1 27.06 14.18L28.96 14.66C30.12 14.96 30.46 15.98 29.68 16.9Z" fill="white"/>
</svg>
