<svg width="48" height="48" viewBox="0 0 48 48" fill="none" xmlns="http://www.w3.org/2000/svg">
<path d="M46.0606 10.0605L41.5606 14.5606C41.2793 14.8418 40.8977 15 40.5 15H35.1211L25.0605 25.0606C24.7676 25.3535 24.3838 25.5 24 25.5C23.6162 25.5 23.2324 25.3535 22.9395 25.0606C22.3535 24.4746 22.3535 23.5254 22.9395 22.9395L33 12.8789V7.5C33 7.1023 33.1582 6.72071 33.4395 6.43946L37.9395 1.93946C38.3694 1.50952 39.0125 1.38135 39.5742 1.61426C40.1345 1.84644 40.5 2.39356 40.5 3V7.5H45C45.6064 7.5 46.1536 7.86548 46.3857 8.42578C46.6179 8.98682 46.4897 9.63135 46.0606 10.0605ZM33.8848 20.4749L27.1802 27.1802C26.3247 28.0349 25.1997 28.5 24 28.5C22.8003 28.5 21.6753 28.0349 20.8198 27.1802C19.0649 25.4253 19.0649 22.5747 20.8198 20.8198L27.5251 14.1152C26.4302 13.7102 25.2451 13.5 24 13.5C18.2102 13.5 13.5 18.2102 13.5 24C13.5 29.7898 18.2102 34.5 24 34.5C29.7898 34.5 34.5 29.7898 34.5 24C34.5 22.7549 34.2898 21.5698 33.8848 20.4749ZM46.5 24C46.5 36.405 36.405 46.5 24 46.5C11.595 46.5 1.5 36.405 1.5 24C1.5 11.595 11.595 1.5 24 1.5C26.9253 1.5 29.7898 2.06983 32.4602 3.18018L31.3198 4.31983C30.4651 5.1753 30 6.3003 30 7.5V11.6397L29.8198 11.8198C28.0503 10.9797 26.0852 10.5 24 10.5C16.5601 10.5 10.5 16.5601 10.5 24C10.5 31.4399 16.5601 37.5 24 37.5C31.4399 37.5 37.5 31.4399 37.5 24C37.5 21.9148 37.0203 19.9497 36.1802 18.1802L36.3604 18H40.5C41.6997 18 42.8247 17.5349 43.6802 16.6802L44.8198 15.5398C45.9302 18.2102 46.5 21.0747 46.5 24Z" fill="white"/>
</svg>
