<svg width="20" height="20" viewBox="0 0 20 20" fill="none" xmlns="http://www.w3.org/2000/svg">
<path d="M4.7915 18.3334C4.44984 18.3334 4.1665 18.0699 4.1665 17.752V2.24814C4.1665 1.93031 4.44984 1.66675 4.7915 1.66675C5.13317 1.66675 5.4165 1.93031 5.4165 2.24814V17.752C5.4165 18.0699 5.13317 18.3334 4.7915 18.3334Z" fill="white"/>
<path d="M13.335 13.3333H4.74193C4.42737 13.3333 4.1665 13.0814 4.1665 12.7777C4.1665 12.474 4.42737 12.2221 4.74193 12.2221H13.335C14.1713 12.2221 14.5626 12.0073 14.6393 11.8221C14.7161 11.637 14.601 11.2221 14.0025 10.6518L13.0818 9.76288C12.7059 9.44436 12.4757 8.96288 12.4527 8.42955C12.4297 7.86659 12.6598 7.31103 13.0818 6.90362L14.0025 6.01473C14.5703 5.46659 14.7467 5.02214 14.6623 4.82955C14.5779 4.63696 14.1406 4.44436 13.335 4.44436H4.74193C4.41969 4.44436 4.1665 4.19251 4.1665 3.88881C4.1665 3.5851 4.42737 3.33325 4.74193 3.33325H13.335C15.0153 3.33325 15.5523 4.00733 15.7288 4.40733C15.8976 4.80733 16.0127 5.65177 14.8158 6.80733L13.8951 7.69622C13.7033 7.8814 13.5959 8.14066 13.6036 8.39992C13.6112 8.62214 13.7033 8.82214 13.8644 8.96288L14.8158 9.87399C15.9897 11.0073 15.8746 11.8518 15.7058 12.2592C15.5293 12.6518 14.9846 13.3333 13.335 13.3333Z" fill="white"/>
</svg>
