<svg width="20" height="20" viewBox="0 0 20 20" fill="none" xmlns="http://www.w3.org/2000/svg">
<path d="M4.7915 18.3333C4.44984 18.3333 4.1665 18.0697 4.1665 17.7519V2.24802C4.1665 1.93019 4.44984 1.66663 4.7915 1.66663C5.13317 1.66663 5.4165 1.93019 5.4165 2.24802V17.7519C5.4165 18.0697 5.13317 18.3333 4.7915 18.3333Z" fill="white"/>
<path d="M13.335 13.3334H4.74193C4.42737 13.3334 4.1665 13.0815 4.1665 12.7778C4.1665 12.4741 4.42737 12.2223 4.74193 12.2223H13.335C14.1713 12.2223 14.5626 12.0074 14.6393 11.8223C14.7161 11.6371 14.601 11.2223 14.0025 10.6519L13.0818 9.763C12.7059 9.44449 12.4757 8.963 12.4527 8.42967C12.4297 7.86671 12.6598 7.31115 13.0818 6.90374L14.0025 6.01486C14.5703 5.46671 14.7467 5.02226 14.6623 4.82967C14.5779 4.63708 14.1406 4.44449 13.335 4.44449H4.74193C4.41969 4.44449 4.1665 4.19263 4.1665 3.88893C4.1665 3.58523 4.42737 3.33337 4.74193 3.33337H13.335C15.0153 3.33337 15.5523 4.00745 15.7288 4.40745C15.8976 4.80745 16.0127 5.65189 14.8158 6.80745L13.8951 7.69634C13.7033 7.88152 13.5959 8.14078 13.6036 8.40004C13.6112 8.62226 13.7033 8.82226 13.8644 8.963L14.8158 9.87411C15.9897 11.0074 15.8746 11.8519 15.7058 12.2593C15.5293 12.6519 14.9846 13.3334 13.335 13.3334Z" fill="white"/>
</svg>
