<?xml version="1.0" standalone="no"?>
<!DOCTYPE svg PUBLIC "-//W3C//DTD SVG 20010904//EN"
 "http://www.w3.org/TR/2001/REC-SVG-20010904/DTD/svg10.dtd">
<svg version="1.0" xmlns="http://www.w3.org/2000/svg"
 width="144.000000pt" height="144.000000pt" viewBox="0 0 144.000000 144.000000"
 preserveAspectRatio="xMidYMid meet">
<metadata>
Created by potrace 1.14, written by Peter Selinger 2001-2017
</metadata>
<g transform="translate(0.000000,144.000000) scale(0.100000,-0.100000)"
fill="#000000" stroke="none">
<path d="M388 1240 c-49 -15 -95 -49 -123 -92 -37 -55 -45 -154 -18 -210 26
-53 171 -208 189 -201 27 10 14 35 -57 111 -85 91 -101 120 -101 183 1 92 77
167 174 170 54 2 97 -20 147 -74 21 -23 57 -62 80 -87 l41 -45 41 45 c23 25
58 64 79 86 47 54 93 77 147 76 86 -2 153 -56 171 -138 11 -48 0 -89 -40 -148
-27 -39 -27 -66 -2 -66 8 0 30 25 51 56 29 44 38 68 41 113 11 158 -157 275
-308 215 -25 -10 -66 -44 -110 -93 l-71 -76 -72 78 c-42 45 -87 83 -109 92
-40 16 -106 18 -150 5z"/>
<path d="M802 877 c-18 -18 -32 -38 -32 -45 0 -18 24 -14 49 7 24 21 46 19 55
-5 6 -17 32 -19 42 -3 7 12 -53 79 -71 79 -6 0 -25 -15 -43 -33z"/>
<path d="M567 862 c-10 -10 -17 -28 -17 -40 0 -28 33 -61 57 -57 10 2 21 4 25
4 4 1 15 12 23 25 37 56 -44 117 -88 68z"/>
<path d="M971 748 c-127 -120 -271 -155 -388 -95 -28 15 -54 31 -58 37 -12 19
-45 11 -45 -10 0 -13 16 -31 47 -50 109 -70 224 -72 349 -9 73 36 194 143 194
170 0 34 -33 20 -99 -43z"/>
<path d="M7 414 c-11 -11 -9 -224 3 -224 11 0 13 15 12 68 l-2 32 65 0 65 0 0
-51 c0 -35 4 -49 12 -47 9 3 13 36 13 107 1 130 -19 171 -27 56 l-3 -39 -50
-1 c-67 -2 -75 2 -72 33 4 35 -6 76 -16 66z"/>
<path d="M808 409 c-58 -16 -96 -90 -74 -144 24 -60 108 -93 152 -61 25 19 15
28 -22 17 -36 -10 -73 2 -96 32 -27 34 -22 74 13 109 27 28 34 30 75 24 46 -6
60 7 22 20 -34 11 -40 12 -70 3z"/>
<path d="M225 325 c-46 -45 -24 -119 39 -131 19 -3 43 -1 55 5 14 8 21 8 21 1
0 -5 5 -10 10 -10 6 0 10 25 10 55 0 67 -29 105 -80 105 -19 0 -40 -9 -55 -25z
m79 -6 c43 -20 43 -78 0 -98 -26 -12 -73 3 -75 23 0 6 -2 18 -4 27 -3 18 14
43 35 52 8 3 16 6 17 6 1 1 13 -4 27 -10z"/>
<path d="M410 332 c-16 -13 -22 -29 -22 -58 -1 -68 2 -84 12 -84 6 0 10 26 10
58 0 47 4 60 20 70 15 9 26 10 40 2 23 -12 22 -10 24 -75 2 -59 20 -67 24 -11
8 97 -47 147 -108 98z"/>
<path d="M579 337 c-74 -57 -15 -173 72 -140 19 7 29 8 29 1 0 -5 5 -8 12 -6
7 3 12 25 13 52 2 38 -3 54 -22 77 -27 31 -74 39 -104 16z m89 -35 c27 -35 3
-84 -41 -84 -36 0 -57 19 -57 53 0 52 65 73 98 31z"/>
<path d="M953 333 c-67 -59 -5 -167 78 -136 20 8 29 8 32 -1 9 -25 21 8 20 57
-1 43 -6 56 -28 74 -31 27 -74 30 -102 6z m95 -31 c39 -50 -34 -113 -83 -72
-8 7 -15 25 -15 41 0 52 65 73 98 31z"/>
<path d="M1136 335 c-14 -10 -19 -30 -22 -80 -2 -49 0 -65 9 -62 7 2 13 27 15
60 2 43 7 59 22 67 25 14 50 2 61 -28 7 -19 13 -22 21 -14 9 9 7 19 -9 39 -23
32 -68 41 -97 18z"/>
<path d="M1305 325 c-43 -43 -26 -115 31 -129 31 -8 80 9 88 30 6 16 -19 20
-29 4 -9 -14 -58 -13 -73 2 -22 22 -12 28 53 28 59 0 65 2 65 20 0 32 -44 70
-80 70 -19 0 -40 -9 -55 -25z m91 -16 c24 -20 16 -26 -36 -25 -53 0 -59 5 -35
30 16 16 48 14 71 -5z"/>
</g>
</svg>
